<svg xmlns="http://www.w3.org/2000/svg" width="22.858" height="16" viewBox="0 0 22.858 16"><defs><style>.a{fill:#f15a22;}</style></defs><path class="a" d="M8.143,24a1.142,1.142,0,0,1-.809-1.95l8-8a1.137,1.137,0,0,1,1.319-.215l3.836,1.918,7.417-7.417a1.143,1.143,0,1,1,1.616,1.616l-8,8a1.149,1.149,0,0,1-1.319.215l-3.836-1.918L8.95,23.666A1.139,1.139,0,0,1,8.143,24Z" transform="translate(-7 -8)"/><path class="a" d="M18.8,14.629a.829.829,0,0,1-.829-.829V9.657H13.829a.829.829,0,0,1,0-1.657H18.8a.829.829,0,0,1,.829.829V13.8A.829.829,0,0,1,18.8,14.629Z" transform="translate(3.228 -8)"/></svg>