<svg height="16" viewBox="0 0 22.858 16" width="22.858" xmlns="http://www.w3.org/2000/svg"><g fill="#f15a22"><path d="m8.143 24a1.142 1.142 0 0 1 -.809-1.95l8-8a1.137 1.137 0 0 1 1.319-.215l3.836 1.918 7.417-7.417a1.143 1.143 0 1 1 1.616 1.616l-8 8a1.149 1.149 0 0 1 -1.319.215l-3.836-1.918-7.417 7.417a1.139 1.139 0 0 1 -.807.334z" transform="translate(-7 -8)"/><path d="m18.8 14.629a.829.829 0 0 1 -.829-.829v-4.143h-4.142a.829.829 0 0 1 0-1.657h4.971a.829.829 0 0 1 .829.829v4.971a.829.829 0 0 1 -.829.829z" transform="translate(3.228 -8)"/></g></svg>